<svg width="268" height="113" viewBox="0 0 268 113" fill="none" xmlns="http://www.w3.org/2000/svg">
<rect x="56.2539" y="64.2336" width="17" height="70" rx="8" transform="rotate(57.8313 56.2539 64.2336)" fill="#9381FF"/>
<path d="M131.779 86.066C112.253 105.592 80.5949 105.592 61.0687 86.066C41.5425 66.5398 41.5425 34.8816 61.0687 15.3553C80.5949 -4.17087 112.253 -4.17087 131.779 15.3553L122.587 24.5477C108.138 10.0983 84.7105 10.0983 70.2611 24.5477C55.8117 38.9971 55.8117 62.4242 70.2611 76.8736C84.7105 91.323 108.138 91.323 122.587 76.8736L131.779 86.066Z" fill="#FFD8BE"/>
<path d="M147.139 36.4742C142.623 36.4742 138.819 38.0825 135.727 41.299C132.634 44.5155 131.087 48.4124 131.087 52.9897C131.087 57.567 132.634 61.4639 135.727 64.6804C138.819 67.8351 142.623 69.4124 147.139 69.4124C151.654 69.4124 155.458 67.8351 158.551 64.6804C161.644 61.4639 163.19 57.567 163.19 52.9897C163.19 48.4124 161.644 44.5155 158.551 41.299C155.458 38.0825 151.654 36.4742 147.139 36.4742ZM147.139 76.4639C140.335 76.4639 134.644 74.2371 130.067 69.7835C125.489 65.268 123.201 59.6701 123.201 52.9897C123.201 46.3093 125.489 40.7423 130.067 36.2887C134.644 31.7732 140.335 29.5155 147.139 29.5155C153.943 29.5155 159.634 31.7732 164.211 36.2887C168.788 40.7423 171.077 46.3093 171.077 52.9897C171.077 59.6701 168.757 65.2371 164.118 69.6907C159.479 74.2062 153.819 76.4639 147.139 76.4639ZM214.801 30.6289H222.41V76H214.152L188.451 42.8763V76H180.75V30.6289H188.451L214.801 64.4948V30.6289ZM242.767 37.7732V50.2062H262.901V57.2577H242.767V76H235.066V30.6289H265.314L265.221 37.7732H242.767Z" fill="#FFD8BE"/>
<path d="M216.438 95.3093C216.438 98.1959 215.544 100.584 213.757 102.474C211.971 104.364 209.84 105.309 207.366 105.309C204.926 105.309 202.744 104.244 200.819 102.113V112.01H196.799V85.8247H200.819V89.1753C202.434 86.7354 204.513 85.5155 207.056 85.5155C209.702 85.5155 211.919 86.4261 213.706 88.2474C215.527 90.0687 216.438 92.4227 216.438 95.3093ZM206.438 101.701C208.087 101.701 209.479 101.117 210.613 99.9485C211.781 98.7457 212.366 97.2337 212.366 95.4124C212.366 93.5911 211.781 92.079 210.613 90.8763C209.479 89.6735 208.105 89.0722 206.489 89.0722C204.874 89.0722 203.517 89.6907 202.417 90.9278C201.318 92.1306 200.768 93.6254 200.768 95.4124C200.768 97.2337 201.318 98.7457 202.417 99.9485C203.517 101.117 204.857 101.701 206.438 101.701ZM225.038 105H221.017V78.2474H225.038V105ZM244.332 85.8247H248.404V105H244.332V101.495C243.679 102.663 242.768 103.591 241.6 104.278C240.466 104.966 239.246 105.309 237.94 105.309C235.741 105.309 233.988 104.639 232.682 103.299C231.376 101.959 230.723 100.052 230.723 97.5773V85.8247H234.744V96.3402C234.744 99.8797 236.204 101.649 239.125 101.649C240.603 101.649 241.84 101.168 242.837 100.206C243.833 99.244 244.332 97.9038 244.332 96.1856V85.8247ZM260.818 105.309C257.726 105.309 254.942 104.347 252.468 102.423L254.427 99.2784C256.626 100.962 258.791 101.804 260.922 101.804C261.815 101.804 262.52 101.598 263.035 101.186C263.585 100.739 263.86 100.189 263.86 99.5361C263.86 98.5739 262.588 97.7148 260.045 96.9588C259.977 96.9244 259.891 96.89 259.788 96.8557C259.719 96.8213 259.667 96.8041 259.633 96.8041C255.647 95.7388 253.654 93.9347 253.654 91.3918C253.654 89.6048 254.324 88.1787 255.664 87.1134C257.038 86.0481 258.843 85.5155 261.076 85.5155C263.276 85.5155 265.372 86.1684 267.365 87.4742L265.87 90.4639C264.324 89.433 262.623 88.9175 260.767 88.9175C258.602 88.9175 257.52 89.6048 257.52 90.9794C257.52 91.5636 257.726 91.9931 258.138 92.268C258.585 92.5086 259.306 92.7491 260.303 92.9897C261.815 93.4021 263.087 93.8144 264.117 94.2268C264.805 94.5361 265.406 94.8625 265.922 95.2062C267.227 96.0997 267.88 97.457 267.88 99.2784C267.88 101.065 267.21 102.526 265.87 103.66C264.564 104.759 262.88 105.309 260.818 105.309Z" fill="#9381FF"/>
</svg>
